<svg xmlns="http://www.w3.org/2000/svg" width="1400" height="820" viewBox="0 0 1400 820" role="img" aria-labelledby="title desc">
  <title id="title">Berkshire Hathaway vs Roper Technologies total return</title>
  <desc id="desc">Growth of one dollar invested on 1992-02-01 through 2026-02-27 using adjusted closing prices.</desc>
  <defs>
    <linearGradient id="bg" x1="0%" y1="0%" x2="100%" y2="100%">
      <stop offset="0%" stop-color="#f8fbfd" />
      <stop offset="100%" stop-color="#edf4f8" />
    </linearGradient>
  </defs>
  <rect x="0" y="0" width="1400" height="820" fill="url(#bg)" />
  <rect x="120" y="140" width="980" height="560" fill="#ffffff" rx="10" />
  <line x1="120" y1="700.00" x2="1100" y2="700.00" stroke="#d7e0e8" stroke-width="1" /><text x="110" y="705.00" text-anchor="end" font-size="13" fill="#31424f">$1</text><text x="64" y="705.00" text-anchor="end" font-size="13" fill="#31424f">1x</text><line x1="120" y1="626.74" x2="1100" y2="626.74" stroke="#d7e0e8" stroke-width="1" /><text x="110" y="631.74" text-anchor="end" font-size="13" fill="#31424f">$2</text><text x="64" y="631.74" text-anchor="end" font-size="13" fill="#31424f">2x</text><line x1="120" y1="529.89" x2="1100" y2="529.89" stroke="#d7e0e8" stroke-width="1" /><text x="110" y="534.89" text-anchor="end" font-size="13" fill="#31424f">$5</text><text x="64" y="534.89" text-anchor="end" font-size="13" fill="#31424f">5x</text><line x1="120" y1="456.63" x2="1100" y2="456.63" stroke="#d7e0e8" stroke-width="1" /><text x="110" y="461.63" text-anchor="end" font-size="13" fill="#31424f">$10</text><text x="64" y="461.63" text-anchor="end" font-size="13" fill="#31424f">10x</text><line x1="120" y1="383.37" x2="1100" y2="383.37" stroke="#d7e0e8" stroke-width="1" /><text x="110" y="388.37" text-anchor="end" font-size="13" fill="#31424f">$20</text><text x="64" y="388.37" text-anchor="end" font-size="13" fill="#31424f">20x</text><line x1="120" y1="286.52" x2="1100" y2="286.52" stroke="#d7e0e8" stroke-width="1" /><text x="110" y="291.52" text-anchor="end" font-size="13" fill="#31424f">$50</text><text x="64" y="291.52" text-anchor="end" font-size="13" fill="#31424f">50x</text><line x1="120" y1="213.26" x2="1100" y2="213.26" stroke="#d7e0e8" stroke-width="1" /><text x="110" y="218.26" text-anchor="end" font-size="13" fill="#31424f">$100</text><text x="64" y="218.26" text-anchor="end" font-size="13" fill="#31424f">100x</text><line x1="120" y1="140.00" x2="1100" y2="140.00" stroke="#d7e0e8" stroke-width="1" /><text x="110" y="145.00" text-anchor="end" font-size="13" fill="#31424f">$200</text><text x="64" y="145.00" text-anchor="end" font-size="13" fill="#31424f">200x</text>
  <line x1="203.87" y1="140" x2="203.87" y2="700" stroke="#eef2f5" stroke-width="1" /><text x="203.87" y="728" text-anchor="middle" font-size="13" fill="#31424f">1995</text><line x1="347.66" y1="140" x2="347.66" y2="700" stroke="#eef2f5" stroke-width="1" /><text x="347.66" y="728" text-anchor="middle" font-size="13" fill="#31424f">2000</text><line x1="491.53" y1="140" x2="491.53" y2="700" stroke="#eef2f5" stroke-width="1" /><text x="491.53" y="728" text-anchor="middle" font-size="13" fill="#31424f">2005</text><line x1="635.32" y1="140" x2="635.32" y2="700" stroke="#eef2f5" stroke-width="1" /><text x="635.32" y="728" text-anchor="middle" font-size="13" fill="#31424f">2010</text><line x1="779.11" y1="140" x2="779.11" y2="700" stroke="#eef2f5" stroke-width="1" /><text x="779.11" y="728" text-anchor="middle" font-size="13" fill="#31424f">2015</text><line x1="922.90" y1="140" x2="922.90" y2="700" stroke="#eef2f5" stroke-width="1" /><text x="922.90" y="728" text-anchor="middle" font-size="13" fill="#31424f">2020</text><line x1="1100.00" y1="140" x2="1100.00" y2="700" stroke="#eef2f5" stroke-width="1" /><text x="1100.00" y="728" text-anchor="middle" font-size="13" fill="#31424f">2026-02</text>
  <rect x="120" y="140" width="980" height="560" fill="none" stroke="#9fb3c1" stroke-width="1.2" rx="10" />
  <polyline fill="none" stroke="#0d6b9f" stroke-width="3" stroke-linejoin="round" stroke-linecap="round" points="120.00,700.00 122.28,697.31 124.72,695.26 127.09,695.55 129.53,694.11 131.89,690.73 134.33,695.26 136.77,692.12 139.14,691.28 141.58,678.19 143.94,668.54 146.38,665.44 148.82,662.21 151.03,659.91 153.47,660.74 155.83,642.73 158.27,639.95 160.63,635.91 163.07,626.29 165.52,631.54 167.88,627.96 170.32,627.96 172.68,633.78 175.12,634.59 177.56,639.60 179.77,636.40 182.21,635.25 184.57,635.25 187.01,635.25 189.38,614.46 191.82,617.19 194.26,618.02 196.62,611.01 199.06,609.58 201.42,610.23 203.87,590.44 206.31,600.94 208.51,599.17 210.95,604.19 213.31,598.94 215.76,595.50 218.12,589.80 220.56,586.64 223.00,571.60 225.36,571.24 227.80,564.98 230.17,562.32 232.61,562.98 235.05,551.68 237.33,556.71 239.77,557.80 242.14,567.72 244.58,567.03 246.94,566.34 249.38,564.98 251.82,562.15 254.18,561.33 256.63,558.76 258.99,555.93 261.43,553.78 263.87,551.68 266.07,549.61 268.52,544.48 270.88,531.42 273.32,521.57 275.68,521.57 278.12,535.17 280.56,527.08 282.93,529.71 285.37,525.91 287.73,524.29 290.17,514.84 292.61,503.88 294.82,484.23 297.26,482.05 299.62,478.86 302.06,468.06 304.42,479.75 306.87,495.33 309.31,496.91 311.67,488.56 314.11,483.13 316.47,479.91 318.91,487.75 321.35,478.27 323.56,477.82 326.00,470.67 328.36,476.94 330.80,481.59 333.17,483.28 335.61,489.05 338.05,505.40 340.41,489.55 342.85,501.07 345.21,503.31 347.66,512.97 350.10,528.99 352.38,501.26 354.82,497.45 357.18,498.70 359.63,507.73 361.99,505.21 364.43,500.34 366.87,488.73 369.23,489.88 371.67,486.29 374.04,478.41 376.48,482.36 378.92,479.46 381.12,487.02 383.56,482.98 385.93,481.89 388.37,480.82 390.73,481.13 393.17,480.82 395.61,479.91 397.98,478.12 400.42,479.91 402.78,471.78 405.22,474.18 407.66,475.48 409.87,478.27 412.31,474.83 414.67,473.19 417.11,484.86 419.47,482.51 421.91,475.48 424.36,474.18 426.72,473.77 429.16,476.50 431.52,475.84 433.96,483.60 436.40,493.25 438.61,489.72 441.05,480.19 443.41,478.41 445.85,476.20 448.22,476.92 450.66,471.53 453.10,472.62 455.46,468.73 457.90,460.96 460.26,460.33 462.70,453.95 465.15,448.19 467.43,449.54 469.87,449.44 472.23,454.53 474.67,454.59 477.04,456.63 479.48,456.93 481.92,457.36 484.28,460.33 486.72,461.02 489.08,455.85 491.53,453.47 493.97,453.12 496.17,456.93 498.61,460.20 500.98,460.52 503.42,461.27 505.78,461.27 508.22,461.72 510.66,463.19 513.02,458.28 515.46,454.07 517.83,454.98 520.27,453.95 522.71,457.18 524.91,452.94 527.36,454.53 529.72,450.70 532.16,451.42 534.52,451.49 536.96,446.42 539.40,446.75 541.77,436.58 544.21,434.97 546.57,432.15 549.01,432.09 551.45,435.87 553.66,433.12 556.10,432.91 558.46,432.63 560.90,432.65 563.26,432.14 565.71,424.37 568.15,424.27 570.51,412.47 572.95,406.58 575.31,405.45 577.75,409.72 580.19,406.65 582.48,411.76 584.92,411.40 587.28,410.77 589.72,422.29 592.09,427.95 594.53,425.98 596.97,414.00 599.33,426.99 601.77,438.07 604.13,445.87 606.57,453.94 609.02,467.67 611.22,457.30 613.66,448.75 616.02,451.49 618.47,453.35 620.83,445.43 623.27,441.32 625.71,441.16 628.07,443.28 630.51,441.58 632.88,443.06 635.32,427.81 637.76,423.12 639.96,421.37 642.40,427.14 644.77,436.15 647.21,422.94 649.57,425.62 652.01,424.12 654.45,419.05 656.81,423.56 659.26,422.77 661.62,422.55 664.06,420.83 666.50,413.43 668.71,418.38 671.15,418.84 673.51,424.03 675.95,426.43 678.31,430.71 680.75,432.36 683.19,435.26 685.56,425.67 688.00,424.27 690.36,427.67 692.80,424.79 695.24,424.78 697.53,421.28 699.97,422.24 702.33,423.96 704.77,418.68 707.13,416.58 709.57,417.32 712.02,412.31 714.38,414.89 716.82,412.94 719.18,411.23 721.62,402.31 724.06,397.54 726.27,395.02 728.71,393.20 731.07,385.33 733.51,387.00 735.88,383.73 738.32,387.98 740.76,385.88 743.12,384.29 745.56,383.22 747.92,381.33 750.37,386.44 752.81,383.85 755.01,375.86 757.45,372.57 759.82,373.27 762.26,374.43 764.62,375.42 767.06,365.89 769.50,365.37 771.86,363.80 774.30,357.42 776.67,356.04 779.11,360.89 781.55,358.31 783.75,360.09 786.20,362.10 788.56,361.41 791.00,366.42 793.36,361.80 795.80,367.62 798.24,371.50 800.61,366.55 803.05,368.24 805.41,370.12 807.85,371.98 810.29,367.61 812.58,362.07 815.02,359.36 817.38,362.95 819.82,360.34 822.18,360.82 824.62,356.15 827.06,360.71 829.43,360.97 831.87,351.01 834.23,347.88 836.67,347.08 839.11,342.41 841.32,345.43 843.76,346.31 846.12,346.03 848.56,343.40 850.92,340.10 853.37,336.67 855.81,335.39 858.17,333.21 860.61,329.14 862.97,326.95 865.41,318.17 867.86,322.55 870.06,326.42 872.50,329.44 874.86,330.71 877.30,332.62 879.67,325.55 882.11,320.67 884.55,319.28 886.91,323.42 889.35,317.31 891.72,324.01 894.16,322.12 896.60,325.33 898.80,325.67 901.24,317.61 903.61,327.14 906.05,319.82 908.41,323.09 910.85,325.02 913.29,322.01 915.65,319.63 918.10,315.87 920.46,313.00 922.90,314.12 925.34,322.94 927.62,336.45 930.07,332.75 932.43,333.90 934.87,338.30 937.23,328.37 939.67,316.81 942.11,319.28 944.48,325.22 946.92,311.73 949.28,310.47 951.72,311.60 954.16,305.49 956.37,299.54 958.81,292.44 961.17,286.58 963.61,290.89 965.97,290.81 968.41,288.07 970.86,292.73 973.22,287.34 975.66,291.32 978.02,283.09 980.46,278.69 982.90,277.26 985.11,266.16 987.55,275.47 989.91,277.74 992.35,293.35 994.72,282.84 997.16,290.21 999.60,294.00 1001.96,284.41 1004.40,276.36 1006.76,278.94 1009.21,277.97 1011.65,280.11 1013.85,279.64 1016.29,271.50 1018.65,274.67 1021.10,268.41 1023.46,264.88 1025.90,262.66 1028.34,265.65 1030.70,268.40 1033.14,262.82 1035.51,263.46 1037.95,256.78 1040.39,249.96 1042.67,246.94 1045.11,252.92 1047.48,248.12 1049.92,250.70 1052.28,242.89 1054.72,234.26 1057.16,237.88 1059.52,240.08 1061.97,232.98 1064.33,239.46 1066.77,236.15 1069.21,225.79 1071.42,222.64 1073.86,222.36 1076.22,228.21 1078.66,232.28 1081.02,233.59 1083.46,228.51 1085.90,228.66 1088.27,234.19 1090.71,226.46 1093.07,228.58 1095.51,233.20 1097.95,228.27 1100.00,228.27" />
  <polyline fill="none" stroke="#ca5a1b" stroke-width="3" stroke-linejoin="round" stroke-linecap="round" points="120.00,700.00 122.28,701.31 124.72,712.45 127.09,731.50 129.53,749.72 131.89,750.46 134.33,757.00 136.77,727.72 139.14,711.92 141.58,711.66 143.94,711.66 146.38,676.94 148.82,651.47 151.03,647.39 153.47,631.79 155.83,597.32 158.27,595.23 160.63,581.41 163.07,567.72 165.52,563.92 167.88,567.63 170.32,571.48 172.68,575.47 175.12,602.15 177.56,587.41 179.77,594.96 182.21,606.32 184.57,610.63 187.01,597.80 189.38,594.83 191.82,616.95 194.26,607.43 196.62,607.16 199.06,599.50 201.42,601.57 203.87,617.34 206.31,602.40 208.51,594.76 210.95,594.27 213.31,575.30 215.76,566.65 218.12,568.94 220.56,569.56 223.00,555.74 225.36,562.79 227.80,564.77 230.17,561.11 232.61,553.32 235.05,539.22 237.33,537.19 239.77,536.04 242.14,534.75 244.58,530.89 246.94,560.04 249.38,547.74 251.82,534.02 254.18,545.85 256.63,543.17 258.99,553.76 261.43,549.46 263.87,550.70 266.07,545.89 268.52,549.07 270.88,529.58 273.32,523.83 275.68,515.74 278.12,514.63 280.56,495.83 282.93,520.40 285.37,512.36 287.73,514.44 290.17,508.75 292.61,511.20 294.82,508.96 297.26,504.38 299.62,496.96 302.06,522.25 304.42,536.00 306.87,567.42 309.31,565.12 311.67,562.49 314.11,557.67 316.47,547.83 318.91,537.93 321.35,538.78 323.56,530.74 326.00,512.02 328.36,498.68 330.80,499.50 333.17,490.03 335.61,487.40 338.05,480.44 340.41,503.08 342.85,483.22 345.21,481.46 347.66,494.06 350.10,515.87 352.38,492.67 354.82,500.55 357.18,488.42 359.63,522.12 361.99,514.18 364.43,497.14 366.87,494.52 369.23,488.90 371.67,501.92 374.04,494.69 376.48,479.14 378.92,477.59 381.12,486.04 383.56,469.66 385.93,471.27 388.37,469.56 390.73,479.93 393.17,471.26 395.61,485.03 397.98,467.71 400.42,468.51 402.78,451.14 405.22,450.10 407.66,457.00 409.87,450.45 412.31,458.74 414.67,475.97 417.11,480.68 419.47,504.58 421.91,487.90 424.36,488.66 426.72,476.80 429.16,467.20 431.52,482.14 433.96,487.44 436.40,507.06 438.61,507.06 441.05,500.87 443.41,481.33 445.85,479.87 448.22,472.47 450.66,465.11 453.10,462.98 455.46,449.61 457.90,447.89 460.26,449.76 462.70,451.43 465.15,451.10 467.43,451.75 469.87,451.10 472.23,441.71 474.67,434.11 477.04,435.79 479.48,437.22 481.92,432.89 484.28,425.43 486.72,425.45 489.08,426.80 491.53,431.62 493.97,420.15 496.17,418.69 498.61,415.24 500.98,411.64 503.42,409.44 505.78,401.76 508.22,401.21 510.66,399.12 513.02,403.49 515.46,398.67 517.83,398.38 520.27,396.16 522.71,384.31 524.91,376.28 527.36,378.85 529.72,380.11 532.16,380.31 534.52,383.88 536.96,381.02 539.40,384.83 541.77,377.72 544.21,370.21 546.57,372.43 549.01,368.96 551.45,366.40 553.66,362.96 556.10,360.71 558.46,356.33 560.90,358.64 563.26,353.44 565.71,347.65 568.15,344.02 570.51,335.78 572.95,347.28 575.31,348.80 577.75,360.63 580.19,359.58 582.48,354.03 584.92,349.37 587.28,344.39 589.72,343.03 592.09,350.86 594.53,354.42 596.97,358.28 599.33,382.38 601.77,381.22 604.13,386.82 606.57,392.50 609.02,391.77 611.22,388.99 613.66,381.45 616.02,387.48 618.47,381.91 620.83,376.21 623.27,376.98 625.71,369.24 628.07,370.13 630.51,366.88 632.88,366.21 635.32,370.94 637.76,360.00 639.96,355.52 642.40,349.86 644.77,355.02 647.21,358.84 649.57,347.16 652.01,354.73 654.45,342.54 656.81,335.86 659.26,331.27 661.62,325.56 664.06,323.83 666.50,315.26 668.71,312.38 671.15,312.34 673.51,315.96 675.95,316.18 678.31,318.32 680.75,324.42 683.19,336.08 685.56,318.87 688.00,313.50 690.36,311.44 692.80,303.79 695.24,305.76 697.53,297.29 699.97,294.40 702.33,294.96 704.77,297.75 707.13,296.82 709.57,293.18 712.02,286.12 714.38,286.82 716.82,284.42 719.18,284.47 721.62,278.80 724.06,272.54 726.27,270.28 728.71,276.84 731.07,272.73 733.51,272.73 735.88,271.26 738.32,273.04 740.76,265.48 743.12,270.42 745.56,267.90 747.92,260.82 750.37,261.93 752.81,263.03 755.01,264.68 757.45,260.46 759.82,258.25 762.26,255.07 764.62,256.48 767.06,251.68 769.50,254.72 771.86,246.38 774.30,246.55 776.67,247.54 779.11,248.91 781.55,240.04 783.75,237.28 786.20,239.66 788.56,235.32 791.00,236.85 793.36,240.07 795.80,243.25 798.24,246.82 800.61,228.51 803.05,224.37 805.41,226.41 807.85,234.58 810.29,239.18 812.58,230.23 815.02,234.16 817.38,237.04 819.82,237.36 822.18,237.48 824.62,232.92 827.06,230.03 829.43,235.48 831.87,230.65 834.23,229.51 836.67,224.56 839.11,215.21 841.32,216.59 843.76,210.52 846.12,206.31 848.56,204.31 850.92,203.89 853.37,204.55 855.81,198.87 858.17,192.64 860.61,188.86 862.97,192.15 865.41,183.69 867.86,185.62 870.06,183.49 872.50,189.89 874.86,185.19 877.30,185.15 879.67,175.63 882.11,176.72 884.55,177.49 886.91,182.34 889.35,176.85 891.72,188.50 894.16,182.06 896.60,167.79 898.80,161.97 901.24,156.63 903.61,161.23 906.05,154.58 908.41,155.33 910.85,154.31 913.29,157.27 915.65,163.26 918.10,156.02 920.46,157.83 922.90,149.95 925.34,158.44 927.62,171.17 930.07,161.70 932.43,146.32 934.87,147.82 937.23,136.42 939.67,137.58 942.11,145.83 944.48,152.39 946.92,137.49 949.28,136.48 951.72,146.28 954.16,150.34 956.37,143.37 958.81,132.64 961.17,131.65 963.61,127.01 965.97,122.37 968.41,123.99 970.86,132.44 973.22,122.99 975.66,128.12 978.02,121.99 980.46,134.46 982.90,131.68 985.11,126.16 987.55,126.68 989.91,132.91 992.35,144.99 994.72,134.30 997.16,142.73 999.60,154.65 1001.96,139.63 1004.40,133.43 1006.76,135.08 1009.21,136.39 1011.65,135.37 1013.85,132.83 1016.29,129.50 1018.65,129.47 1021.10,123.46 1023.46,120.80 1025.90,119.36 1028.34,122.54 1030.70,121.61 1033.14,111.23 1035.51,109.88 1037.95,111.47 1040.39,109.81 1042.67,106.73 1045.11,116.47 1047.48,112.01 1049.92,106.05 1052.28,109.66 1054.72,107.66 1057.16,107.28 1059.52,110.89 1061.97,105.25 1064.33,114.32 1066.77,103.54 1069.21,101.76 1071.42,100.84 1073.86,106.27 1076.22,104.21 1078.66,104.85 1081.02,107.96 1083.46,112.54 1085.90,118.23 1088.27,130.00 1090.71,129.81 1093.07,130.07 1095.51,149.26 1097.95,155.35 1100.00,155.35" />
  <circle cx="1100.00" cy="228.27" r="4.5" fill="#0d6b9f" />
  <circle cx="1100.00" cy="155.35" r="4.5" fill="#ca5a1b" />
  <text x="120" y="42" font-size="28" font-family="Helvetica, Arial, sans-serif" font-weight="700" fill="#13222d">Berkshire Hathaway vs Roper Technologies</text>
  <text x="120" y="76" font-size="15" font-family="Helvetica, Arial, sans-serif" fill="#31424f">Adjusted close (dividends and splits), normalized to $1 at 1992-02-01. Berkshire Class A used to maximize history.</text>
  <text x="64" y="122" text-anchor="end" font-size="12" font-family="Helvetica, Arial, sans-serif" fill="#31424f">Growth</text>
  <text x="110" y="122" text-anchor="end" font-size="12" font-family="Helvetica, Arial, sans-serif" fill="#31424f">Dollar value</text>
  <text x="1088" y="234.27" text-anchor="end" font-size="14" font-family="Helvetica, Arial, sans-serif" fill="#0d6b9f">BRK.A 86.8x</text>
  <text x="1088" y="158.00" text-anchor="end" font-size="14" font-family="Helvetica, Arial, sans-serif" fill="#ca5a1b">ROP 173.0x</text>
  <rect x="1130" y="36" width="240" height="78" rx="10" fill="#ffffff" stroke="#d7e0e8" />
  <line x1="1150" y1="61" x2="1180" y2="61" stroke="#0d6b9f" stroke-width="3" />
  <text x="1198" y="66" font-size="13" font-family="Helvetica, Arial, sans-serif" fill="#13222d">Berkshire Hathaway (Class A)</text>
  <line x1="1150" y1="88" x2="1180" y2="88" stroke="#ca5a1b" stroke-width="3" />
  <text x="1198" y="93" font-size="13" font-family="Helvetica, Arial, sans-serif" fill="#13222d">Roper Technologies</text>
  <text x="120" y="762" font-size="14" font-family="Helvetica, Arial, sans-serif" fill="#13222d">From 1992-02 to 2026-02: BRK.A CAGR 14.0% | ROP CAGR 16.3%</text>
  <text x="120" y="788" font-size="12" font-family="Helvetica, Arial, sans-serif" fill="#4f6474">Source: Yahoo Finance chart API monthly adjusted close. Latest point in the saved data is the February 27, 2026 market close.</text>
</svg>
